<svg>
<symbol id="gmail" xmlns="http://www.w3.org/2000/svg" viewBox="0 0 512 512"><path fill="#eceff1" d="M64 64h384v384H64z"/><path fill="#cfd8dc" d="M256 296.384L448 448V148.672z"/><path fill="#f44336" d="M464 64h-16L256 215.616 64 64H48C21.504 64 0 85.504 0 112v288c0 26.496 21.504 48 48 48h16V148.672l192 147.68L448 148.64V448h16c26.496 0 48-21.504 48-48V112c0-26.496-21.504-48-48-48z"/></symbol>

<symbol id="phone" xmlns="http://www.w3.org/2000/svg" viewBox="0 0 512 512"><circle cx="256" cy="256" r="256" fill="#2196f3"/><path fill="#fafafa" d="M384 308.928c-27.616 0-53.952-6.016-78.24-17.888a16.267 16.267 0 0 0-12.256-.736 16.138 16.138 0 0 0-9.184 8.16l-11.52 23.84c-34.56-19.84-63.232-48.544-83.104-83.104l23.872-11.52c3.84-1.856 6.752-5.152 8.16-9.184 1.376-4.032 1.12-8.448-.736-12.256-11.904-24.256-17.92-50.592-17.92-78.24 0-8.832-7.168-16-16-16H128c-8.832 0-16 7.168-16 16 0 149.984 122.016 272 272 272 8.832 0 16-7.168 16-16v-59.072c0-8.832-7.168-16-16-16z"/></symbol>

<symbol id="telegram" xmlns="http://www.w3.org/2000/svg" viewBox="0 0 24 24"><circle cx="12" cy="12" r="12" fill="#039be5"/><path fill="#fff" d="M5.491 11.74l11.57-4.461c.537-.194 1.006.131.832.943l.001-.001-1.97 9.281c-.146.658-.537.818-1.084.508l-3-2.211-1.447 1.394c-.16.16-.295.295-.605.295l.213-3.053 5.56-5.023c.242-.213-.054-.333-.373-.121l-6.871 4.326-2.962-.924c-.643-.204-.657-.643.136-.953z"/></symbol>

<symbol id="github" xmlns="http://www.w3.org/2000/svg" viewBox="0 0 24 24"><path fill="#212121" d="M12 .5C5.37.5 0 5.78 0 12.292c0 5.211 3.438 9.63 8.205 11.188.6.111.82-.254.82-.567 0-.28-.01-1.022-.015-2.005-3.338.711-4.042-1.582-4.042-1.582-.546-1.361-1.335-1.725-1.335-1.725-1.087-.731.084-.716.084-.716 1.205.082 1.838 1.215 1.838 1.215 1.07 1.803 2.809 1.282 3.495.981.108-.763.417-1.282.76-1.577-2.665-.295-5.466-1.309-5.466-5.827 0-1.287.465-2.339 1.235-3.164-.135-.298-.54-1.497.105-3.121 0 0 1.005-.316 3.3 1.209.96-.262 1.98-.392 3-.398 1.02.006 2.04.136 3 .398 2.28-1.525 3.285-1.209 3.285-1.209.645 1.624.24 2.823.12 3.121.765.825 1.23 1.877 1.23 3.164 0 4.53-2.805 5.527-5.475 5.817.42.354.81 1.077.81 2.182 0 1.578-.015 2.846-.015 3.229 0 .309.21.678.825.56C20.565 21.917 24 17.495 24 12.292 24 5.78 18.627.5 12 .5z"/></symbol>

</svg>