<svg>
<symbol id="gmail" xmlns="http://www.w3.org/2000/svg" viewBox="0 0 512 512"><path fill="#eceff1" d="M64 64h384v384H64z"/><path fill="#cfd8dc" d="M256 296.384L448 448V148.672z"/><path fill="#f44336" d="M464 64h-16L256 215.616 64 64H48C21.504 64 0 85.504 0 112v288c0 26.496 21.504 48 48 48h16V148.672l192 147.68L448 148.64V448h16c26.496 0 48-21.504 48-48V112c0-26.496-21.504-48-48-48z"/></symbol>

<symbol id="phone" xmlns="http://www.w3.org/2000/svg" viewBox="0 0 512 512"><circle cx="256" cy="256" r="256" fill="#6aaf50"/><path fill="#4d8538" d="M135.693 102.206l-.008.004c-29.639 15.464-42.074 51.222-28.494 81.77a454.997 454.997 0 0 0 77.468 119.423l23.939 23.939 159.073 159.073c39.82-19.335 73.863-48.69 98.876-84.783l-58.697-58.697a32.553 32.553 0 0 0-8.681-8.681L177.747 112.833c-9.294-13.695-27.382-18.283-42.054-10.627z"/><path fill="#fff" d="M349.593 300.614a24.052 24.052 0 0 0-27.116.071l-11.752 8.066c-13.09 8.984-30.498 8.496-43.08-1.187a402.081 402.081 0 0 1-33.924-29.283 401.742 401.742 0 0 1-29.283-33.924c-9.684-12.581-10.171-29.989-1.187-43.08l8.066-11.752a24.054 24.054 0 0 0 .071-27.116l-33.64-49.575c-9.293-13.694-27.381-18.282-42.054-10.627l-.009.004c-29.639 15.464-42.074 51.222-28.494 81.77a454.997 454.997 0 0 0 77.468 119.423l23.939 23.939a455.055 455.055 0 0 0 119.423 77.468c30.549 13.58 66.306 1.145 81.77-28.494l.004-.009c7.655-14.672 3.068-32.761-10.627-42.054l-49.575-33.64z"/></symbol>

<symbol id="telegram" xmlns="http://www.w3.org/2000/svg" viewBox="0 0 24 24"><path fill="#212121" d="M12 24c6.629 0 12-5.371 12-12S18.629 0 12 0 0 5.371 0 12s5.371 12 12 12zM5.491 11.74l11.57-4.461c.537-.194 1.006.131.832.943l.001-.001-1.97 9.281c-.146.658-.537.818-1.084.508l-3-2.211-1.447 1.394c-.16.16-.295.295-.605.295l.213-3.053 5.56-5.023c.242-.213-.054-.333-.373-.121l-6.871 4.326-2.962-.924c-.643-.204-.657-.643.136-.953z"/></symbol>

<symbol id="github" xmlns="http://www.w3.org/2000/svg" viewBox="0 0 24 24"><path fill="#212121" d="M12 .5C5.37.5 0 5.78 0 12.292c0 5.211 3.438 9.63 8.205 11.188.6.111.82-.254.82-.567 0-.28-.01-1.022-.015-2.005-3.338.711-4.042-1.582-4.042-1.582-.546-1.361-1.335-1.725-1.335-1.725-1.087-.731.084-.716.084-.716 1.205.082 1.838 1.215 1.838 1.215 1.07 1.803 2.809 1.282 3.495.981.108-.763.417-1.282.76-1.577-2.665-.295-5.466-1.309-5.466-5.827 0-1.287.465-2.339 1.235-3.164-.135-.298-.54-1.497.105-3.121 0 0 1.005-.316 3.3 1.209.96-.262 1.98-.392 3-.398 1.02.006 2.04.136 3 .398 2.28-1.525 3.285-1.209 3.285-1.209.645 1.624.24 2.823.12 3.121.765.825 1.23 1.877 1.23 3.164 0 4.53-2.805 5.527-5.475 5.817.42.354.81 1.077.81 2.182 0 1.578-.015 2.846-.015 3.229 0 .309.21.678.825.56C20.565 21.917 24 17.495 24 12.292 24 5.78 18.627.5 12 .5z"/></symbol>

</svg>